<mxfile host="app.diagrams.net" agent="Mozilla/5.0 (Macintosh; Intel Mac OS X 10_15_7) AppleWebKit/605.1.15 (KHTML, like Gecko) Version/18.2 Safari/605.1.15" version="26.2.8">
  <diagram name="Page-1" id="2YBvvXClWsGukQMizWep">
    <mxGraphModel dx="2249" dy="1779" grid="1" gridSize="10" guides="1" tooltips="1" connect="1" arrows="1" fold="1" page="1" pageScale="1" pageWidth="850" pageHeight="1100" math="0" shadow="0">
      <root>
        <mxCell id="0" />
        <mxCell id="1" parent="0" />
        <mxCell id="aM9ryv3xv72pqoxQDRHE-1" value="&lt;p style=&quot;margin: 0px 0px 5px; font-style: normal; font-variant-caps: normal; font-stretch: normal; line-height: normal; font-family: &amp;quot;Times New Roman&amp;quot;; font-size-adjust: none; font-kerning: auto; font-variant-alternates: normal; font-variant-ligatures: normal; font-variant-numeric: normal; font-variant-east-asian: normal; font-variant-position: normal; font-variant-emoji: normal; font-feature-settings: normal; font-optical-sizing: auto; font-variation-settings: normal;&quot;&gt;: Użytkownik / Pacjent&lt;/p&gt;" style="shape=umlLifeline;perimeter=lifelinePerimeter;whiteSpace=wrap;html=1;container=0;dropTarget=0;collapsible=0;recursiveResize=0;outlineConnect=0;portConstraint=eastwest;newEdgeStyle={&quot;edgeStyle&quot;:&quot;elbowEdgeStyle&quot;,&quot;elbow&quot;:&quot;vertical&quot;,&quot;curved&quot;:0,&quot;rounded&quot;:0};" parent="1" vertex="1">
          <mxGeometry x="-20" y="40" width="100" height="300" as="geometry" />
        </mxCell>
        <mxCell id="aM9ryv3xv72pqoxQDRHE-2" value="" style="html=1;points=[];perimeter=orthogonalPerimeter;outlineConnect=0;targetShapes=umlLifeline;portConstraint=eastwest;newEdgeStyle={&quot;edgeStyle&quot;:&quot;elbowEdgeStyle&quot;,&quot;elbow&quot;:&quot;vertical&quot;,&quot;curved&quot;:0,&quot;rounded&quot;:0};" parent="aM9ryv3xv72pqoxQDRHE-1" vertex="1">
          <mxGeometry x="45" y="70" width="10" height="190" as="geometry" />
        </mxCell>
        <mxCell id="aM9ryv3xv72pqoxQDRHE-3" value="" style="html=1;verticalAlign=bottom;startArrow=oval;endArrow=block;startSize=8;edgeStyle=elbowEdgeStyle;elbow=vertical;curved=0;rounded=0;" parent="aM9ryv3xv72pqoxQDRHE-1" target="aM9ryv3xv72pqoxQDRHE-2" edge="1">
          <mxGeometry relative="1" as="geometry">
            <mxPoint x="-15" y="70" as="sourcePoint" />
          </mxGeometry>
        </mxCell>
        <mxCell id="aM9ryv3xv72pqoxQDRHE-4" value="" style="html=1;points=[];perimeter=orthogonalPerimeter;outlineConnect=0;targetShapes=umlLifeline;portConstraint=eastwest;newEdgeStyle={&quot;edgeStyle&quot;:&quot;elbowEdgeStyle&quot;,&quot;elbow&quot;:&quot;vertical&quot;,&quot;curved&quot;:0,&quot;rounded&quot;:0};" parent="aM9ryv3xv72pqoxQDRHE-1" vertex="1">
          <mxGeometry x="50" y="120" width="10" height="80" as="geometry" />
        </mxCell>
        <mxCell id="aM9ryv3xv72pqoxQDRHE-5" value=":Pracownik rejestracji" style="shape=umlLifeline;perimeter=lifelinePerimeter;whiteSpace=wrap;html=1;container=0;dropTarget=0;collapsible=0;recursiveResize=0;outlineConnect=0;portConstraint=eastwest;newEdgeStyle={&quot;edgeStyle&quot;:&quot;elbowEdgeStyle&quot;,&quot;elbow&quot;:&quot;vertical&quot;,&quot;curved&quot;:0,&quot;rounded&quot;:0};" parent="1" vertex="1">
          <mxGeometry x="220" y="40" width="100" height="300" as="geometry" />
        </mxCell>
        <mxCell id="aM9ryv3xv72pqoxQDRHE-6" value="" style="html=1;points=[];perimeter=orthogonalPerimeter;outlineConnect=0;targetShapes=umlLifeline;portConstraint=eastwest;newEdgeStyle={&quot;edgeStyle&quot;:&quot;elbowEdgeStyle&quot;,&quot;elbow&quot;:&quot;vertical&quot;,&quot;curved&quot;:0,&quot;rounded&quot;:0};" parent="aM9ryv3xv72pqoxQDRHE-5" vertex="1">
          <mxGeometry x="45" y="80" width="10" height="170" as="geometry" />
        </mxCell>
        <mxCell id="aM9ryv3xv72pqoxQDRHE-7" value="" style="html=1;verticalAlign=bottom;endArrow=block;edgeStyle=elbowEdgeStyle;elbow=vertical;curved=0;rounded=0;" parent="1" source="aM9ryv3xv72pqoxQDRHE-2" target="aM9ryv3xv72pqoxQDRHE-6" edge="1">
          <mxGeometry relative="1" as="geometry">
            <mxPoint x="195" y="130" as="sourcePoint" />
            <Array as="points">
              <mxPoint x="180" y="120" />
            </Array>
          </mxGeometry>
        </mxCell>
        <mxCell id="aM9ryv3xv72pqoxQDRHE-8" value="return" style="html=1;verticalAlign=bottom;endArrow=open;dashed=1;endSize=8;edgeStyle=elbowEdgeStyle;elbow=vertical;curved=0;rounded=0;" parent="1" source="aM9ryv3xv72pqoxQDRHE-6" target="aM9ryv3xv72pqoxQDRHE-2" edge="1">
          <mxGeometry relative="1" as="geometry">
            <mxPoint x="195" y="205" as="targetPoint" />
            <Array as="points">
              <mxPoint x="190" y="280" />
            </Array>
          </mxGeometry>
        </mxCell>
        <mxCell id="aM9ryv3xv72pqoxQDRHE-9" value="przypiszPacjenta()" style="html=1;verticalAlign=bottom;endArrow=block;edgeStyle=elbowEdgeStyle;elbow=vertical;curved=0;rounded=0;" parent="1" source="Gn5Ju1YnGxwZPbSIlJPx-49" edge="1">
          <mxGeometry x="0.8253" y="10" relative="1" as="geometry">
            <mxPoint x="595" y="250" as="sourcePoint" />
            <Array as="points">
              <mxPoint x="650" y="250" />
              <mxPoint x="520" y="240" />
            </Array>
            <mxPoint x="660" y="300" as="targetPoint" />
            <mxPoint as="offset" />
          </mxGeometry>
        </mxCell>
        <mxCell id="Gn5Ju1YnGxwZPbSIlJPx-1" value="Wizyta" style="swimlane;fontStyle=1;align=center;verticalAlign=top;childLayout=stackLayout;horizontal=1;startSize=26;horizontalStack=0;resizeParent=1;resizeParentMax=0;resizeLast=0;collapsible=1;marginBottom=0;whiteSpace=wrap;html=1;" vertex="1" parent="1">
          <mxGeometry x="1327" y="407" width="220" height="210" as="geometry" />
        </mxCell>
        <mxCell id="Gn5Ju1YnGxwZPbSIlJPx-2" value="&lt;div&gt;&lt;li class=&quot;&quot; data-end=&quot;982&quot; data-start=&quot;971&quot;&gt;&lt;p class=&quot;&quot; data-end=&quot;982&quot; data-start=&quot;973&quot;&gt;&lt;code data-end=&quot;982&quot; data-start=&quot;973&quot;&gt;id: int&lt;/code&gt;&lt;/p&gt;&lt;/li&gt;&lt;li class=&quot;&quot; data-end=&quot;1006&quot; data-start=&quot;986&quot;&gt;&lt;p class=&quot;&quot; data-end=&quot;1006&quot; data-start=&quot;988&quot;&gt;&lt;code data-end=&quot;1006&quot; data-start=&quot;988&quot;&gt;termin: DateTime&lt;/code&gt;&lt;/p&gt;&lt;/li&gt;&lt;li class=&quot;&quot; data-end=&quot;1028&quot; data-start=&quot;1010&quot;&gt;&lt;p class=&quot;&quot; data-end=&quot;1028&quot; data-start=&quot;1012&quot;&gt;&lt;code data-end=&quot;1028&quot; data-start=&quot;1012&quot;&gt;status: String&lt;/code&gt;&lt;/p&gt;&lt;/li&gt;&lt;li class=&quot;&quot; data-end=&quot;1051&quot; data-start=&quot;1032&quot;&gt;&lt;p class=&quot;&quot; data-end=&quot;1051&quot; data-start=&quot;1034&quot;&gt;&lt;code data-end=&quot;1051&quot; data-start=&quot;1034&quot;&gt;notatki: String&lt;/code&gt;&lt;/p&gt;&lt;p class=&quot;&quot; data-end=&quot;1051&quot; data-start=&quot;1034&quot;&gt;&lt;code data-end=&quot;1051&quot; data-start=&quot;1034&quot;&gt;+lekarz: String&lt;/code&gt;&lt;/p&gt;&lt;/li&gt;&lt;/div&gt;" style="text;strokeColor=none;fillColor=none;align=left;verticalAlign=top;spacingLeft=4;spacingRight=4;overflow=hidden;rotatable=0;points=[[0,0.5],[1,0.5]];portConstraint=eastwest;whiteSpace=wrap;html=1;" vertex="1" parent="Gn5Ju1YnGxwZPbSIlJPx-1">
          <mxGeometry y="26" width="220" height="144" as="geometry" />
        </mxCell>
        <mxCell id="Gn5Ju1YnGxwZPbSIlJPx-3" value="" style="line;strokeWidth=1;fillColor=none;align=left;verticalAlign=middle;spacingTop=-1;spacingLeft=3;spacingRight=3;rotatable=0;labelPosition=right;points=[];portConstraint=eastwest;strokeColor=inherit;" vertex="1" parent="Gn5Ju1YnGxwZPbSIlJPx-1">
          <mxGeometry y="170" width="220" height="40" as="geometry" />
        </mxCell>
        <mxCell id="Gn5Ju1YnGxwZPbSIlJPx-6" value="&lt;p style=&quot;margin: 0px 0px 5px; font-style: normal; font-variant-caps: normal; font-weight: normal; font-stretch: normal; line-height: normal; font-family: &amp;quot;Times New Roman&amp;quot;; font-size-adjust: none; font-kerning: auto; font-variant-alternates: normal; font-variant-ligatures: normal; font-variant-numeric: normal; font-variant-east-asian: normal; font-variant-position: normal; font-variant-emoji: normal; font-feature-settings: normal; font-optical-sizing: auto; font-variation-settings: normal;&quot;&gt;Użytkownik&lt;/p&gt;" style="swimlane;fontStyle=1;align=center;verticalAlign=top;childLayout=stackLayout;horizontal=1;startSize=26;horizontalStack=0;resizeParent=1;resizeParentMax=0;resizeLast=0;collapsible=1;marginBottom=0;whiteSpace=wrap;html=1;" vertex="1" parent="1">
          <mxGeometry x="980" y="-90" width="230" height="150" as="geometry" />
        </mxCell>
        <mxCell id="Gn5Ju1YnGxwZPbSIlJPx-7" value="&lt;li class=&quot;&quot; data-end=&quot;302&quot; data-start=&quot;291&quot;&gt;&lt;p class=&quot;&quot; data-end=&quot;302&quot; data-start=&quot;293&quot;&gt;&lt;code data-end=&quot;302&quot; data-start=&quot;293&quot;&gt;id: int&lt;/code&gt;&lt;/p&gt;&lt;/li&gt;&lt;li class=&quot;&quot; data-end=&quot;323&quot; data-start=&quot;306&quot;&gt;&lt;p class=&quot;&quot; data-end=&quot;323&quot; data-start=&quot;308&quot;&gt;&lt;code data-end=&quot;323&quot; data-start=&quot;308&quot;&gt;email: String&lt;/code&gt;&lt;/p&gt;&lt;/li&gt;&lt;li class=&quot;&quot; data-end=&quot;343&quot; data-start=&quot;327&quot;&gt;&lt;p class=&quot;&quot; data-end=&quot;343&quot; data-start=&quot;329&quot;&gt;&lt;code data-end=&quot;343&quot; data-start=&quot;329&quot;&gt;imię: String&lt;/code&gt;&lt;/p&gt;&lt;/li&gt;&lt;li class=&quot;&quot; data-end=&quot;360&quot; data-start=&quot;347&quot;&gt;&lt;p class=&quot;&quot; data-end=&quot;360&quot; data-start=&quot;349&quot;&gt;&lt;code data-end=&quot;360&quot; data-start=&quot;349&quot;&gt;wiek: int&lt;/code&gt;&lt;/p&gt;&lt;/li&gt;" style="text;strokeColor=none;fillColor=none;align=left;verticalAlign=top;spacingLeft=4;spacingRight=4;overflow=hidden;rotatable=0;points=[[0,0.5],[1,0.5]];portConstraint=eastwest;whiteSpace=wrap;html=1;" vertex="1" parent="Gn5Ju1YnGxwZPbSIlJPx-6">
          <mxGeometry y="26" width="230" height="124" as="geometry" />
        </mxCell>
        <mxCell id="Gn5Ju1YnGxwZPbSIlJPx-10" value="Lekarz" style="swimlane;fontStyle=1;align=center;verticalAlign=top;childLayout=stackLayout;horizontal=1;startSize=26;horizontalStack=0;resizeParent=1;resizeParentMax=0;resizeLast=0;collapsible=1;marginBottom=0;whiteSpace=wrap;html=1;" vertex="1" parent="1">
          <mxGeometry x="987" y="480" width="223" height="280" as="geometry" />
        </mxCell>
        <mxCell id="Gn5Ju1YnGxwZPbSIlJPx-11" value="&lt;li class=&quot;&quot; data-end=&quot;808&quot; data-start=&quot;783&quot;&gt;&lt;p class=&quot;&quot; data-end=&quot;808&quot; data-start=&quot;785&quot;&gt;&lt;code data-end=&quot;808&quot; data-start=&quot;785&quot;&gt;specjalizacja: String&lt;/code&gt;&lt;/p&gt;&lt;/li&gt;&lt;li class=&quot;&quot; data-end=&quot;859&quot; data-start=&quot;812&quot;&gt;&lt;p class=&quot;&quot; data-end=&quot;859&quot; data-start=&quot;814&quot;&gt;&lt;code data-end=&quot;832&quot; data-start=&quot;814&quot;&gt;numerPWZ: String&lt;/code&gt;&amp;nbsp;(prawo wykonywania zawodu)&lt;span style=&quot;white-space: pre;&quot;&gt;&#x9;&lt;/span&gt;&lt;/p&gt;&lt;/li&gt;" style="text;strokeColor=none;fillColor=none;align=left;verticalAlign=top;spacingLeft=4;spacingRight=4;overflow=hidden;rotatable=0;points=[[0,0.5],[1,0.5]];portConstraint=eastwest;whiteSpace=wrap;html=1;" vertex="1" parent="Gn5Ju1YnGxwZPbSIlJPx-10">
          <mxGeometry y="26" width="223" height="84" as="geometry" />
        </mxCell>
        <mxCell id="Gn5Ju1YnGxwZPbSIlJPx-12" value="" style="line;strokeWidth=1;fillColor=none;align=left;verticalAlign=middle;spacingTop=-1;spacingLeft=3;spacingRight=3;rotatable=0;labelPosition=right;points=[];portConstraint=eastwest;strokeColor=inherit;" vertex="1" parent="Gn5Ju1YnGxwZPbSIlJPx-10">
          <mxGeometry y="110" width="223" height="100" as="geometry" />
        </mxCell>
        <mxCell id="Gn5Ju1YnGxwZPbSIlJPx-37" value="&lt;code style=&quot;text-align: left; white-space: normal;&quot; data-end=&quot;893&quot; data-start=&quot;873&quot;&gt;przeglądajZapisy()&lt;/code&gt;&lt;span style=&quot;text-align: left; white-space: normal;&quot;&gt;,&amp;nbsp;&lt;/span&gt;&lt;div&gt;&lt;code style=&quot;text-align: left; white-space: normal;&quot; data-end=&quot;911&quot; data-start=&quot;895&quot;&gt;dodajNotatkę()&lt;/code&gt;&lt;span style=&quot;text-align: left; white-space: normal;&quot;&gt;,&amp;nbsp;&lt;/span&gt;&lt;/div&gt;&lt;div&gt;&lt;code style=&quot;text-align: left; white-space: normal;&quot; data-end=&quot;930&quot; data-start=&quot;913&quot;&gt;zakończWizytę()&lt;/code&gt;&lt;span style=&quot;text-align: left; white-space: normal;&quot;&gt;,&amp;nbsp;&lt;/span&gt;&lt;/div&gt;&lt;div&gt;&lt;code style=&quot;text-align: left; white-space: normal;&quot; data-end=&quot;952&quot; data-start=&quot;932&quot;&gt;zaakceptujWizytę()&lt;/code&gt;&lt;br&gt;&lt;/div&gt;" style="text;html=1;align=center;verticalAlign=middle;resizable=0;points=[];autosize=1;strokeColor=none;fillColor=none;" vertex="1" parent="Gn5Ju1YnGxwZPbSIlJPx-10">
          <mxGeometry y="210" width="223" height="70" as="geometry" />
        </mxCell>
        <mxCell id="Gn5Ju1YnGxwZPbSIlJPx-15" value="Pacjent" style="swimlane;fontStyle=1;align=center;verticalAlign=top;childLayout=stackLayout;horizontal=1;startSize=26;horizontalStack=0;resizeParent=1;resizeParentMax=0;resizeLast=0;collapsible=1;marginBottom=0;whiteSpace=wrap;html=1;" vertex="1" parent="1">
          <mxGeometry x="997" y="199" width="210" height="220" as="geometry" />
        </mxCell>
        <mxCell id="Gn5Ju1YnGxwZPbSIlJPx-16" value="&lt;li class=&quot;&quot; data-end=&quot;494&quot; data-start=&quot;464&quot;&gt;&lt;p class=&quot;&quot; data-end=&quot;494&quot; data-start=&quot;466&quot;&gt;&lt;code data-end=&quot;494&quot; data-start=&quot;466&quot;&gt;numerUbezpieczenia: int&lt;/code&gt;&lt;/p&gt;&lt;/li&gt;&lt;li class=&quot;&quot; data-end=&quot;526&quot; data-start=&quot;498&quot;&gt;&lt;p class=&quot;&quot; data-end=&quot;526&quot; data-start=&quot;500&quot;&gt;&lt;code data-end=&quot;526&quot; data-start=&quot;500&quot;&gt;historiaMedyczna: String&lt;/code&gt;&lt;/p&gt;&lt;/li&gt;" style="text;strokeColor=none;fillColor=none;align=left;verticalAlign=top;spacingLeft=4;spacingRight=4;overflow=hidden;rotatable=0;points=[[0,0.5],[1,0.5]];portConstraint=eastwest;whiteSpace=wrap;html=1;" vertex="1" parent="Gn5Ju1YnGxwZPbSIlJPx-15">
          <mxGeometry y="26" width="210" height="114" as="geometry" />
        </mxCell>
        <mxCell id="Gn5Ju1YnGxwZPbSIlJPx-17" value="" style="line;strokeWidth=1;fillColor=none;align=left;verticalAlign=middle;spacingTop=-1;spacingLeft=3;spacingRight=3;rotatable=0;labelPosition=right;points=[];portConstraint=eastwest;strokeColor=inherit;" vertex="1" parent="Gn5Ju1YnGxwZPbSIlJPx-15">
          <mxGeometry y="140" width="210" height="8" as="geometry" />
        </mxCell>
        <mxCell id="Gn5Ju1YnGxwZPbSIlJPx-18" value="&amp;nbsp;+&lt;code data-end=&quot;567&quot; data-start=&quot;540&quot;&gt;przeglądajHistorieWizyt()&lt;/code&gt;,&lt;div&gt;&amp;nbsp;+&lt;code data-end=&quot;590&quot; data-start=&quot;569&quot;&gt;zarejestrujWizyte()&lt;/code&gt;,&amp;nbsp;&lt;/div&gt;&lt;div&gt;+&lt;code data-end=&quot;609&quot; data-start=&quot;592&quot;&gt;odwołajWizyte()&lt;/code&gt;&lt;/div&gt;" style="text;strokeColor=none;fillColor=none;align=left;verticalAlign=top;spacingLeft=4;spacingRight=4;overflow=hidden;rotatable=0;points=[[0,0.5],[1,0.5]];portConstraint=eastwest;whiteSpace=wrap;html=1;" vertex="1" parent="Gn5Ju1YnGxwZPbSIlJPx-15">
          <mxGeometry y="148" width="210" height="72" as="geometry" />
        </mxCell>
        <mxCell id="Gn5Ju1YnGxwZPbSIlJPx-21" value="&lt;p style=&quot;margin: 0px 0px 5px; font-style: normal; font-variant-caps: normal; font-weight: normal; font-stretch: normal; line-height: normal; font-family: &amp;quot;Times New Roman&amp;quot;; font-size-adjust: none; font-kerning: auto; font-variant-alternates: normal; font-variant-ligatures: normal; font-variant-numeric: normal; font-variant-east-asian: normal; font-variant-position: normal; font-variant-emoji: normal; font-feature-settings: normal; font-optical-sizing: auto; font-variation-settings: normal;&quot;&gt;punkt rejestracyjny&lt;/p&gt;" style="swimlane;fontStyle=1;align=center;verticalAlign=top;childLayout=stackLayout;horizontal=1;startSize=26;horizontalStack=0;resizeParent=1;resizeParentMax=0;resizeLast=0;collapsible=1;marginBottom=0;whiteSpace=wrap;html=1;" vertex="1" parent="1">
          <mxGeometry x="1281" y="83" width="320" height="220" as="geometry" />
        </mxCell>
        <mxCell id="Gn5Ju1YnGxwZPbSIlJPx-22" value="&lt;span style=&quot;caret-color: rgb(95, 161, 55); font-size: 11px;&quot;&gt;&lt;li class=&quot;&quot; data-end=&quot;494&quot; data-start=&quot;464&quot;&gt;&lt;p class=&quot;&quot; data-end=&quot;494&quot; data-start=&quot;466&quot;&gt;&lt;code data-end=&quot;494&quot; data-start=&quot;466&quot;&gt;numerUbezpieczenia: int&lt;/code&gt;&lt;/p&gt;&lt;/li&gt;&lt;li style=&quot;caret-color: rgb(0, 0, 0); font-size: 12px;&quot; class=&quot;&quot; data-end=&quot;323&quot; data-start=&quot;306&quot;&gt;&lt;p class=&quot;&quot; data-end=&quot;323&quot; data-start=&quot;308&quot;&gt;&lt;code data-end=&quot;323&quot; data-start=&quot;308&quot;&gt;email: String&lt;/code&gt;&lt;/p&gt;&lt;/li&gt;&lt;li style=&quot;caret-color: rgb(0, 0, 0); font-size: 12px;&quot; class=&quot;&quot; data-end=&quot;343&quot; data-start=&quot;327&quot;&gt;&lt;p class=&quot;&quot; data-end=&quot;343&quot; data-start=&quot;329&quot;&gt;&lt;code data-end=&quot;343&quot; data-start=&quot;329&quot;&gt;imię: String&lt;/code&gt;&lt;/p&gt;&lt;/li&gt;&lt;li style=&quot;caret-color: rgb(0, 0, 0); font-size: 12px;&quot; class=&quot;&quot; data-end=&quot;360&quot; data-start=&quot;347&quot;&gt;&lt;p class=&quot;&quot; data-end=&quot;360&quot; data-start=&quot;349&quot;&gt;&lt;code data-end=&quot;360&quot; data-start=&quot;349&quot;&gt;wiek: int&lt;/code&gt;&lt;/p&gt;&lt;/li&gt;&lt;p&gt;&lt;/p&gt;&lt;/span&gt;" style="text;strokeColor=none;fillColor=none;align=left;verticalAlign=top;spacingLeft=4;spacingRight=4;overflow=hidden;rotatable=0;points=[[0,0.5],[1,0.5]];portConstraint=eastwest;whiteSpace=wrap;html=1;fontColor=default;" vertex="1" parent="Gn5Ju1YnGxwZPbSIlJPx-21">
          <mxGeometry y="26" width="320" height="124" as="geometry" />
        </mxCell>
        <mxCell id="Gn5Ju1YnGxwZPbSIlJPx-23" value="" style="line;strokeWidth=1;fillColor=none;align=left;verticalAlign=middle;spacingTop=-1;spacingLeft=3;spacingRight=3;rotatable=0;labelPosition=right;points=[];portConstraint=eastwest;strokeColor=inherit;" vertex="1" parent="Gn5Ju1YnGxwZPbSIlJPx-21">
          <mxGeometry y="150" width="320" height="8" as="geometry" />
        </mxCell>
        <mxCell id="Gn5Ju1YnGxwZPbSIlJPx-24" value="&lt;span style=&quot;&quot;&gt;+&lt;/span&gt;&lt;span style=&quot;font-family: &amp;quot;Times New Roman&amp;quot;;&quot;&gt;zapiszPacjentaNaWizytę()&lt;/span&gt;&lt;div&gt;&lt;span style=&quot;font-family: &amp;quot;Times New Roman&amp;quot;;&quot;&gt;+&lt;/span&gt;&lt;span style=&quot;font-family: &amp;quot;Times New Roman&amp;quot;;&quot;&gt;zmodyfikujTermin()&lt;/span&gt;&lt;/div&gt;&lt;div&gt;&lt;span style=&quot;font-family: &amp;quot;Times New Roman&amp;quot;;&quot;&gt;+ usunRejestrację()&lt;/span&gt;&lt;/div&gt;" style="text;strokeColor=none;fillColor=none;align=left;verticalAlign=top;spacingLeft=4;spacingRight=4;overflow=hidden;rotatable=0;points=[[0,0.5],[1,0.5]];portConstraint=eastwest;whiteSpace=wrap;html=1;fontColor=#000000;" vertex="1" parent="Gn5Ju1YnGxwZPbSIlJPx-21">
          <mxGeometry y="158" width="320" height="62" as="geometry" />
        </mxCell>
        <mxCell id="Gn5Ju1YnGxwZPbSIlJPx-8" value="" style="line;strokeWidth=1;fillColor=none;align=left;verticalAlign=middle;spacingTop=-1;spacingLeft=3;spacingRight=3;rotatable=0;labelPosition=right;points=[];portConstraint=eastwest;strokeColor=inherit;" vertex="1" parent="1">
          <mxGeometry x="980" y="93" width="245" height="61" as="geometry" />
        </mxCell>
        <mxCell id="Gn5Ju1YnGxwZPbSIlJPx-9" value="&lt;div&gt;&lt;code data-end=&quot;385&quot; data-start=&quot;374&quot;&gt;zaloguj()&lt;/code&gt;&lt;span style=&quot;font-size: medium;&quot;&gt;,&amp;nbsp;&lt;/span&gt;&lt;/div&gt;&lt;div&gt;&lt;code data-end=&quot;398&quot; data-start=&quot;387&quot;&gt;wyloguj()&lt;/code&gt;&lt;span style=&quot;font-size: medium;&quot;&gt;,&amp;nbsp;&lt;/span&gt;&lt;/div&gt;&lt;div&gt;&lt;code data-end=&quot;415&quot; data-start=&quot;400&quot;&gt;pobierzDane()&lt;/code&gt;&lt;br&gt;&lt;/div&gt;" style="text;strokeColor=none;fillColor=none;align=left;verticalAlign=top;spacingLeft=4;spacingRight=4;overflow=hidden;rotatable=0;points=[[0,0.5],[1,0.5]];portConstraint=eastwest;whiteSpace=wrap;html=1;" vertex="1" parent="1">
          <mxGeometry x="980" y="60" width="230" height="70" as="geometry" />
        </mxCell>
        <mxCell id="Gn5Ju1YnGxwZPbSIlJPx-41" value="&lt;p style=&quot;margin: 0px 0px 5px; font-style: normal; font-variant-caps: normal; font-stretch: normal; font-size: 12px; line-height: normal; font-family: &amp;quot;Times New Roman&amp;quot;; font-size-adjust: none; font-kerning: auto; font-variant-alternates: normal; font-variant-ligatures: normal; font-variant-numeric: normal; font-variant-east-asian: normal; font-variant-position: normal; font-variant-emoji: normal; font-feature-settings: normal; font-optical-sizing: auto; font-variation-settings: normal;&quot;&gt;wybiera dostępnego lekarza&lt;/p&gt;" style="html=1;verticalAlign=bottom;endArrow=block;curved=0;rounded=0;" edge="1" target="Gn5Ju1YnGxwZPbSIlJPx-40" parent="1" source="aM9ryv3xv72pqoxQDRHE-5">
          <mxGeometry relative="1" as="geometry">
            <mxPoint x="280" y="155" as="sourcePoint" />
            <Array as="points">
              <mxPoint x="340" y="170" />
            </Array>
          </mxGeometry>
        </mxCell>
        <mxCell id="Gn5Ju1YnGxwZPbSIlJPx-42" value="&lt;div style=&quot;text-align: left;&quot;&gt;&lt;font size=&quot;1&quot; face=&quot;monospace&quot;&gt;&lt;span style=&quot;text-wrap-mode: wrap; background-color: rgb(236, 236, 236);&quot;&gt;return&lt;/span&gt;&lt;/font&gt;&lt;/div&gt;" style="html=1;verticalAlign=bottom;endArrow=open;dashed=1;endSize=8;curved=0;rounded=0;" edge="1" source="Gn5Ju1YnGxwZPbSIlJPx-47" parent="1" target="aM9ryv3xv72pqoxQDRHE-5">
          <mxGeometry relative="1" as="geometry">
            <mxPoint x="280" y="225" as="targetPoint" />
            <Array as="points">
              <mxPoint x="350" y="270" />
            </Array>
            <mxPoint as="offset" />
          </mxGeometry>
        </mxCell>
        <mxCell id="Gn5Ju1YnGxwZPbSIlJPx-47" value=":Lekarz" style="shape=umlLifeline;perimeter=lifelinePerimeter;whiteSpace=wrap;html=1;container=0;dropTarget=0;collapsible=0;recursiveResize=0;outlineConnect=0;portConstraint=eastwest;newEdgeStyle={&quot;edgeStyle&quot;:&quot;elbowEdgeStyle&quot;,&quot;elbow&quot;:&quot;vertical&quot;,&quot;curved&quot;:0,&quot;rounded&quot;:0};" vertex="1" parent="1">
          <mxGeometry x="350" y="20" width="110" height="300" as="geometry" />
        </mxCell>
        <mxCell id="Gn5Ju1YnGxwZPbSIlJPx-40" value="" style="html=1;points=[[0,0,0,0,5],[0,1,0,0,-5],[1,0,0,0,5],[1,1,0,0,-5]];perimeter=orthogonalPerimeter;outlineConnect=0;targetShapes=umlLifeline;portConstraint=eastwest;newEdgeStyle={&quot;curved&quot;:0,&quot;rounded&quot;:0};" vertex="1" parent="Gn5Ju1YnGxwZPbSIlJPx-47">
          <mxGeometry x="50" y="95" width="10" height="195" as="geometry" />
        </mxCell>
        <mxCell id="Gn5Ju1YnGxwZPbSIlJPx-49" value=":Wizyta" style="shape=umlLifeline;perimeter=lifelinePerimeter;whiteSpace=wrap;html=1;container=0;dropTarget=0;collapsible=0;recursiveResize=0;outlineConnect=0;portConstraint=eastwest;newEdgeStyle={&quot;edgeStyle&quot;:&quot;elbowEdgeStyle&quot;,&quot;elbow&quot;:&quot;vertical&quot;,&quot;curved&quot;:0,&quot;rounded&quot;:0};" vertex="1" parent="1">
          <mxGeometry x="670" y="43" width="110" height="300" as="geometry" />
        </mxCell>
        <mxCell id="Gn5Ju1YnGxwZPbSIlJPx-50" value="" style="html=1;points=[[0,0,0,0,5],[0,1,0,0,-5],[1,0,0,0,5],[1,1,0,0,-5]];perimeter=orthogonalPerimeter;outlineConnect=0;targetShapes=umlLifeline;portConstraint=eastwest;newEdgeStyle={&quot;curved&quot;:0,&quot;rounded&quot;:0};" vertex="1" parent="Gn5Ju1YnGxwZPbSIlJPx-49">
          <mxGeometry x="50" y="95" width="10" height="145" as="geometry" />
        </mxCell>
        <mxCell id="Gn5Ju1YnGxwZPbSIlJPx-54" value="&lt;p style=&quot;margin: 0px 0px 5px; font-style: normal; font-variant-caps: normal; font-stretch: normal; line-height: normal; font-family: &amp;quot;Times New Roman&amp;quot;; font-size-adjust: none; font-kerning: auto; font-variant-alternates: normal; font-variant-ligatures: normal; font-variant-numeric: normal; font-variant-east-asian: normal; font-variant-position: normal; font-variant-emoji: normal; font-feature-settings: normal; font-optical-sizing: auto; font-variation-settings: normal;&quot;&gt;&lt;font style=&quot;font-size: 10px;&quot;&gt;loguje się do systemu&lt;/font&gt;&lt;/p&gt;&lt;p style=&quot;margin: 0px 0px 5px; font-style: normal; font-variant-caps: normal; font-stretch: normal; line-height: normal; font-family: &amp;quot;Times New Roman&amp;quot;; font-size-adjust: none; font-kerning: auto; font-variant-alternates: normal; font-variant-ligatures: normal; font-variant-numeric: normal; font-variant-east-asian: normal; font-variant-position: normal; font-variant-emoji: normal; font-feature-settings: normal; font-optical-sizing: auto; font-variation-settings: normal;&quot;&gt;&lt;font style=&quot;font-size: 10px;&quot;&gt;&amp;nbsp;jako pacjent&lt;/font&gt;&lt;/p&gt;" style="text;html=1;align=center;verticalAlign=middle;resizable=0;points=[];autosize=1;strokeColor=none;fillColor=none;" vertex="1" parent="1">
          <mxGeometry x="20" y="93" width="110" height="50" as="geometry" />
        </mxCell>
        <mxCell id="Gn5Ju1YnGxwZPbSIlJPx-55" value="&lt;p style=&quot;margin: 0px 0px 5px; font-style: normal; font-variant-caps: normal; font-stretch: normal; line-height: normal; font-family: &amp;quot;Times New Roman&amp;quot;; font-size-adjust: none; font-kerning: auto; font-variant-alternates: normal; font-variant-ligatures: normal; font-variant-numeric: normal; font-variant-east-asian: normal; font-variant-position: normal; font-variant-emoji: normal; font-feature-settings: normal; font-optical-sizing: auto; font-variation-settings: normal;&quot;&gt;&lt;font style=&quot;font-size: 10px;&quot;&gt;kontaktuje się z punktem rejestracyjnym&amp;nbsp;&lt;/font&gt;&lt;/p&gt;&lt;p style=&quot;margin: 0px 0px 5px; font-style: normal; font-variant-caps: normal; font-stretch: normal; line-height: normal; font-family: &amp;quot;Times New Roman&amp;quot;; font-size-adjust: none; font-kerning: auto; font-variant-alternates: normal; font-variant-ligatures: normal; font-variant-numeric: normal; font-variant-east-asian: normal; font-variant-position: normal; font-variant-emoji: normal; font-feature-settings: normal; font-optical-sizing: auto; font-variation-settings: normal;&quot;&gt;&lt;font style=&quot;font-size: 10px;&quot;&gt;w celu umówienia wizyty&lt;/font&gt;&lt;/p&gt;" style="text;html=1;align=center;verticalAlign=middle;resizable=0;points=[];autosize=1;strokeColor=none;fillColor=none;" vertex="1" parent="1">
          <mxGeometry x="115" y="93" width="190" height="50" as="geometry" />
        </mxCell>
        <mxCell id="Gn5Ju1YnGxwZPbSIlJPx-57" style="edgeStyle=orthogonalEdgeStyle;rounded=0;orthogonalLoop=1;jettySize=auto;html=1;" edge="1" parent="1">
          <mxGeometry relative="1" as="geometry">
            <mxPoint x="30.04000000000019" y="90.96" as="sourcePoint" />
            <mxPoint x="30" y="147.96" as="targetPoint" />
            <Array as="points">
              <mxPoint x="30" y="87.96" />
              <mxPoint x="95" y="87.96" />
              <mxPoint x="95" y="147.96" />
            </Array>
          </mxGeometry>
        </mxCell>
        <mxCell id="Gn5Ju1YnGxwZPbSIlJPx-45" value="&lt;p style=&quot;margin: 0px 0px 5px; font-style: normal; font-variant-caps: normal; font-stretch: normal; line-height: normal; font-family: &amp;quot;Times New Roman&amp;quot;; font-size-adjust: none; font-kerning: auto; font-variant-alternates: normal; font-variant-ligatures: normal; font-variant-numeric: normal; font-variant-east-asian: normal; font-variant-position: normal; font-feature-settings: normal; font-optical-sizing: auto; font-variation-settings: normal;&quot;&gt;&lt;span style=&quot;font-size: 12px;&quot;&gt;tworzy dla pacjenta nową wizytę&lt;/span&gt;&lt;/p&gt;&lt;p style=&quot;margin: 0px 0px 5px; font-style: normal; font-variant-caps: normal; font-stretch: normal; line-height: normal; font-family: &amp;quot;Times New Roman&amp;quot;; font-size-adjust: none; font-kerning: auto; font-variant-alternates: normal; font-variant-ligatures: normal; font-variant-numeric: normal; font-variant-east-asian: normal; font-variant-position: normal; font-feature-settings: normal; font-optical-sizing: auto; font-variation-settings: normal;&quot;&gt;&lt;span style=&quot;font-size: 12px;&quot;&gt;&amp;nbsp;&lt;/span&gt;&lt;span style=&quot;text-align: start; white-space: normal; font-family: Helvetica;&quot;&gt;&lt;font style=&quot;font-size: 10px;&quot;&gt;(termin, lekarz, pacjent)&lt;/font&gt;&lt;/span&gt;&lt;/p&gt;" style="html=1;verticalAlign=bottom;endArrow=block;curved=0;rounded=0;" edge="1" target="Gn5Ju1YnGxwZPbSIlJPx-49" parent="1">
          <mxGeometry x="-0.0588" relative="1" as="geometry">
            <mxPoint x="410" y="180" as="sourcePoint" />
            <mxPoint x="580" y="180" as="targetPoint" />
            <mxPoint as="offset" />
          </mxGeometry>
        </mxCell>
        <mxCell id="Gn5Ju1YnGxwZPbSIlJPx-60" value="+przypiszLekarza()&lt;br&gt;&lt;div&gt;+przypiszPacjenta()&lt;br&gt;&lt;/div&gt;" style="text;html=1;align=center;verticalAlign=middle;resizable=0;points=[];autosize=1;strokeColor=none;fillColor=none;" vertex="1" parent="1">
          <mxGeometry x="1355" y="593" width="130" height="40" as="geometry" />
        </mxCell>
        <mxCell id="Gn5Ju1YnGxwZPbSIlJPx-61" value="&lt;p style=&quot;margin: 0px 0px 5px; font-style: normal; font-variant-caps: normal; font-stretch: normal; line-height: normal; font-family: &amp;quot;Times New Roman&amp;quot;; font-size-adjust: none; font-kerning: auto; font-variant-alternates: normal; font-variant-ligatures: normal; font-variant-numeric: normal; font-variant-east-asian: normal; font-variant-position: normal; font-feature-settings: normal; font-optical-sizing: auto; font-variation-settings: normal;&quot;&gt;&lt;br&gt;&lt;/p&gt;" style="html=1;verticalAlign=bottom;endArrow=block;curved=0;rounded=0;" edge="1" parent="1" target="Gn5Ju1YnGxwZPbSIlJPx-49">
          <mxGeometry x="0.0588" y="10" relative="1" as="geometry">
            <mxPoint x="410" y="210" as="sourcePoint" />
            <mxPoint x="580" y="210" as="targetPoint" />
            <mxPoint as="offset" />
          </mxGeometry>
        </mxCell>
        <mxCell id="Gn5Ju1YnGxwZPbSIlJPx-76" value="&lt;span style=&quot;font-family: monospace; font-size: 12px; text-align: left; white-space: normal; background-color: rgb(236, 236, 236);&quot;&gt;przeglądajZapisy()&lt;/span&gt;" style="edgeLabel;html=1;align=center;verticalAlign=middle;resizable=0;points=[];" vertex="1" connectable="0" parent="Gn5Ju1YnGxwZPbSIlJPx-61">
          <mxGeometry x="-0.1288" y="-2" relative="1" as="geometry">
            <mxPoint as="offset" />
          </mxGeometry>
        </mxCell>
        <mxCell id="Gn5Ju1YnGxwZPbSIlJPx-46" value="&lt;span style=&quot;text-align: start; white-space: normal;&quot;&gt;&lt;font style=&quot;font-size: 10px;&quot;&gt;przypiszLekarza()&lt;/font&gt;&lt;/span&gt;" style="html=1;verticalAlign=bottom;endArrow=open;dashed=1;endSize=8;curved=0;rounded=0;" edge="1" parent="1">
          <mxGeometry x="-0.4286" y="-190" relative="1" as="geometry">
            <mxPoint x="450" y="430" as="targetPoint" />
            <mxPoint x="590" y="430" as="sourcePoint" />
            <mxPoint as="offset" />
          </mxGeometry>
        </mxCell>
        <mxCell id="Gn5Ju1YnGxwZPbSIlJPx-62" value="&lt;span style=&quot;font-family: monospace; font-size: 10px; text-align: left; white-space: normal;&quot;&gt;zaakceptujWizytę()&lt;/span&gt;" style="text;html=1;align=center;verticalAlign=middle;resizable=0;points=[];autosize=1;strokeColor=none;fillColor=none;" vertex="1" parent="1">
          <mxGeometry x="405" y="178" width="130" height="30" as="geometry" />
        </mxCell>
        <mxCell id="Gn5Ju1YnGxwZPbSIlJPx-64" value="" style="html=1;verticalAlign=bottom;endArrow=block;edgeStyle=elbowEdgeStyle;elbow=vertical;curved=0;rounded=0;" edge="1" parent="1" source="Gn5Ju1YnGxwZPbSIlJPx-49">
          <mxGeometry relative="1" as="geometry">
            <mxPoint x="590" y="230" as="sourcePoint" />
            <Array as="points">
              <mxPoint x="570" y="240" />
              <mxPoint x="515" y="220" />
            </Array>
            <mxPoint x="420" y="240" as="targetPoint" />
          </mxGeometry>
        </mxCell>
        <mxCell id="Gn5Ju1YnGxwZPbSIlJPx-66" style="edgeStyle=orthogonalEdgeStyle;rounded=0;orthogonalLoop=1;jettySize=auto;html=1;" edge="1" parent="1">
          <mxGeometry relative="1" as="geometry">
            <mxPoint x="42.52000000000019" y="146" as="sourcePoint" />
            <mxPoint x="42.48" y="203" as="targetPoint" />
            <Array as="points">
              <mxPoint x="42.48" y="143" />
              <mxPoint x="107.48" y="143" />
              <mxPoint x="107.48" y="203" />
            </Array>
          </mxGeometry>
        </mxCell>
        <mxCell id="Gn5Ju1YnGxwZPbSIlJPx-67" value="&lt;p style=&quot;margin: 0px 0px 5px; font-style: normal; font-variant-caps: normal; font-stretch: normal; line-height: normal; font-family: &amp;quot;Times New Roman&amp;quot;; font-size-adjust: none; font-kerning: auto; font-variant-alternates: normal; font-variant-ligatures: normal; font-variant-numeric: normal; font-variant-east-asian: normal; font-variant-position: normal; font-variant-emoji: normal; font-feature-settings: normal; font-optical-sizing: auto; font-variation-settings: normal;&quot;&gt;&lt;font style=&quot;font-size: 10px;&quot;&gt;przeglądać swoją&lt;/font&gt;&lt;/p&gt;&lt;p style=&quot;margin: 0px 0px 5px; font-style: normal; font-variant-caps: normal; font-stretch: normal; line-height: normal; font-family: &amp;quot;Times New Roman&amp;quot;; font-size-adjust: none; font-kerning: auto; font-variant-alternates: normal; font-variant-ligatures: normal; font-variant-numeric: normal; font-variant-east-asian: normal; font-variant-position: normal; font-variant-emoji: normal; font-feature-settings: normal; font-optical-sizing: auto; font-variation-settings: normal;&quot;&gt;&lt;font style=&quot;font-size: 10px;&quot;&gt;&amp;nbsp;historię wizyt&lt;/font&gt;&lt;/p&gt;" style="text;html=1;align=center;verticalAlign=middle;resizable=0;points=[];autosize=1;strokeColor=none;fillColor=none;" vertex="1" parent="1">
          <mxGeometry x="25" y="148" width="90" height="50" as="geometry" />
        </mxCell>
        <mxCell id="Gn5Ju1YnGxwZPbSIlJPx-68" value="&lt;p style=&quot;margin: 0px 0px 5px; font-style: normal; font-variant-caps: normal; font-stretch: normal; line-height: normal; font-family: &amp;quot;Times New Roman&amp;quot;; font-size-adjust: none; font-kerning: auto; font-variant-alternates: normal; font-variant-ligatures: normal; font-variant-numeric: normal; font-variant-east-asian: normal; font-variant-position: normal; font-variant-emoji: normal; font-feature-settings: normal; font-optical-sizing: auto; font-variation-settings: normal;&quot;&gt;&lt;font style=&quot;font-size: 10px;&quot;&gt;odwoływać zaplanowane&lt;/font&gt;&lt;/p&gt;&lt;p style=&quot;margin: 0px 0px 5px; font-style: normal; font-variant-caps: normal; font-stretch: normal; line-height: normal; font-family: &amp;quot;Times New Roman&amp;quot;; font-size-adjust: none; font-kerning: auto; font-variant-alternates: normal; font-variant-ligatures: normal; font-variant-numeric: normal; font-variant-east-asian: normal; font-variant-position: normal; font-variant-emoji: normal; font-feature-settings: normal; font-optical-sizing: auto; font-variation-settings: normal;&quot;&gt;&lt;font style=&quot;font-size: 10px;&quot;&gt;wizyty&lt;/font&gt;&lt;/p&gt;" style="text;html=1;align=center;verticalAlign=middle;resizable=0;points=[];autosize=1;strokeColor=none;fillColor=none;" vertex="1" parent="1">
          <mxGeometry x="140" y="140" width="120" height="50" as="geometry" />
        </mxCell>
        <mxCell id="Gn5Ju1YnGxwZPbSIlJPx-69" value="" style="endArrow=classic;html=1;rounded=0;entryX=0;entryY=0;entryDx=0;entryDy=5;entryPerimeter=0;" edge="1" parent="1" target="Gn5Ju1YnGxwZPbSIlJPx-50">
          <mxGeometry width="50" height="50" relative="1" as="geometry">
            <mxPoint x="40" y="143" as="sourcePoint" />
            <mxPoint x="580" y="143" as="targetPoint" />
          </mxGeometry>
        </mxCell>
        <mxCell id="Gn5Ju1YnGxwZPbSIlJPx-70" value="&lt;p style=&quot;margin: 0px 0px 5px; font-style: normal; font-variant-caps: normal; font-stretch: normal; line-height: normal; font-family: &amp;quot;Times New Roman&amp;quot;; font-size-adjust: none; font-kerning: auto; font-variant-alternates: normal; font-variant-ligatures: normal; font-variant-numeric: normal; font-variant-east-asian: normal; font-variant-position: normal; font-feature-settings: normal; font-optical-sizing: auto; font-variation-settings: normal;&quot;&gt;&lt;font style=&quot;font-size: 10px;&quot;&gt;zmodyfikować termin wizyty&lt;/font&gt;&lt;/p&gt;" style="html=1;verticalAlign=bottom;endArrow=block;curved=0;rounded=0;" edge="1" parent="1" source="Gn5Ju1YnGxwZPbSIlJPx-77" target="Gn5Ju1YnGxwZPbSIlJPx-50">
          <mxGeometry x="-0.3182" relative="1" as="geometry">
            <mxPoint x="280" y="190" as="sourcePoint" />
            <mxPoint x="410" y="190" as="targetPoint" />
            <Array as="points">
              <mxPoint x="350" y="190" />
            </Array>
            <mxPoint as="offset" />
          </mxGeometry>
        </mxCell>
        <mxCell id="Gn5Ju1YnGxwZPbSIlJPx-71" value="&lt;p style=&quot;margin: 0px 0px 5px; font-style: normal; font-variant-caps: normal; font-stretch: normal; line-height: normal; font-family: &amp;quot;Times New Roman&amp;quot;; font-size-adjust: none; font-kerning: auto; font-variant-alternates: normal; font-variant-ligatures: normal; font-variant-numeric: normal; font-variant-east-asian: normal; font-variant-position: normal; font-feature-settings: normal; font-optical-sizing: auto; font-variation-settings: normal;&quot;&gt;&lt;span style=&quot;caret-color: rgba(0, 0, 0, 0); color: rgba(0, 0, 0, 0); font-family: monospace; font-size: 0px; text-align: start; background-color: rgb(236, 236, 236);&quot;&gt;%3CmxGraphModel%3E%3Croot%3E%3CmxCell%20id%3D%220%22%2F%3E%3CmxCell%20id%3D%221%22%20parent%3D%220%22%2F%3E%3CmxCell%20id%3D%222%22%20value%3D%22%26lt%3Bp%20style%3D%26quot%3Bmargin%3A%200px%200px%205px%3B%20font-style%3A%20normal%3B%20font-variant-caps%3A%20normal%3B%20font-stretch%3A%20normal%3B%20line-height%3A%20normal%3B%20font-family%3A%20%26amp%3Bquot%3BTimes%20New%20Roman%26amp%3Bquot%3B%3B%20font-size-adjust%3A%20none%3B%20font-kerning%3A%20auto%3B%20font-variant-alternates%3A%20normal%3B%20font-variant-ligatures%3A%20normal%3B%20font-variant-numeric%3A%20normal%3B%20font-variant-east-asian%3A%20normal%3B%20font-variant-position%3A%20normal%3B%20font-feature-settings%3A%20normal%3B%20font-optical-sizing%3A%20auto%3B%20font-variation-settings%3A%20normal%3B%26quot%3B%26gt%3B%26lt%3Bfont%20style%3D%26quot%3Bfont-size%3A%2010px%3B%26quot%3B%26gt%3Bzmodyfikowa%C4%87%20termin%20wizyty%26lt%3B%2Ffont%26gt%3B%26lt%3B%2Fp%26gt%3B%22%20style%3D%22html%3D1%3BverticalAlign%3Dbottom%3BendArrow%3Dblock%3Bcurved%3D0%3Brounded%3D0%3B%22%20edge%3D%221%22%20parent%3D%221%22%3E%3CmxGeometry%20relative%3D%221%22%20as%3D%22geometry%22%3E%3CmxPoint%20x%3D%22280%22%20y%3D%22190%22%20as%3D%22sourcePoint%22%2F%3E%3CmxPoint%20x%3D%22580%22%20y%3D%22190%22%20as%3D%22targetPoint%22%2F%3E%3CArray%20as%3D%22points%22%3E%3CmxPoint%20x%3D%22350%22%20y%3D%22190%22%2F%3E%3C%2FArray%3E%3C%2FmxGeometry%3E%3C%2FmxCell%3E%3C%2Froot%3E%3C%2FmxGraphModel%3E&lt;/span&gt;&lt;br&gt;&lt;/p&gt;" style="html=1;verticalAlign=bottom;endArrow=block;curved=0;rounded=0;" edge="1" parent="1" target="Gn5Ju1YnGxwZPbSIlJPx-50">
          <mxGeometry x="0.236" y="19" relative="1" as="geometry">
            <mxPoint x="275" y="199" as="sourcePoint" />
            <mxPoint x="575" y="199" as="targetPoint" />
            <Array as="points">
              <mxPoint x="345" y="199" />
            </Array>
            <mxPoint x="-1" as="offset" />
          </mxGeometry>
        </mxCell>
        <mxCell id="Gn5Ju1YnGxwZPbSIlJPx-75" value="&lt;code style=&quot;white-space: normal; text-align: left;&quot; data-end=&quot;930&quot; data-start=&quot;913&quot;&gt;zakończWizytę()&lt;/code&gt;&lt;span style=&quot;white-space: normal; text-align: left;&quot;&gt;,&amp;nbsp;&lt;/span&gt;" style="text;html=1;align=center;verticalAlign=middle;resizable=0;points=[];autosize=1;strokeColor=none;fillColor=none;" vertex="1" parent="1">
          <mxGeometry x="580" y="190" width="140" height="30" as="geometry" />
        </mxCell>
        <mxCell id="Gn5Ju1YnGxwZPbSIlJPx-78" value="" style="html=1;verticalAlign=bottom;endArrow=block;curved=0;rounded=0;" edge="1" parent="1" target="Gn5Ju1YnGxwZPbSIlJPx-77">
          <mxGeometry x="-0.3182" relative="1" as="geometry">
            <mxPoint x="280" y="190" as="sourcePoint" />
            <mxPoint x="720" y="190" as="targetPoint" />
            <Array as="points" />
            <mxPoint as="offset" />
          </mxGeometry>
        </mxCell>
        <mxCell id="Gn5Ju1YnGxwZPbSIlJPx-79" value="&lt;p style=&quot;margin: 0px 0px 5px; font-style: normal; font-variant-caps: normal; font-stretch: normal; font-size: 12px; line-height: normal; font-family: &amp;quot;Times New Roman&amp;quot;; font-size-adjust: none; font-kerning: auto; font-variant-alternates: normal; font-variant-ligatures: normal; font-variant-numeric: normal; font-variant-east-asian: normal; font-variant-position: normal; font-variant-emoji: normal; font-feature-settings: normal; font-optical-sizing: auto; font-variation-settings: normal;&quot;&gt;usunąć rejestrację&lt;/p&gt;" style="edgeLabel;html=1;align=center;verticalAlign=middle;resizable=0;points=[];" vertex="1" connectable="0" parent="Gn5Ju1YnGxwZPbSIlJPx-78">
          <mxGeometry x="-0.1787" y="-3" relative="1" as="geometry">
            <mxPoint x="-101" as="offset" />
          </mxGeometry>
        </mxCell>
        <mxCell id="Gn5Ju1YnGxwZPbSIlJPx-77" value="&lt;code style=&quot;white-space: normal; text-align: left;&quot; data-end=&quot;911&quot; data-start=&quot;895&quot;&gt;dodajNotatkę()&lt;/code&gt;&lt;span style=&quot;white-space: normal; text-align: left;&quot;&gt;,&lt;/span&gt;" style="text;html=1;align=center;verticalAlign=middle;resizable=0;points=[];autosize=1;strokeColor=none;fillColor=none;" vertex="1" parent="1">
          <mxGeometry x="540" y="175" width="130" height="30" as="geometry" />
        </mxCell>
        <mxCell id="Gn5Ju1YnGxwZPbSIlJPx-83" value="" style="endArrow=block;endSize=16;endFill=0;html=1;rounded=0;entryX=0.314;entryY=0.967;entryDx=0;entryDy=0;entryPerimeter=0;exitX=0.25;exitY=0;exitDx=0;exitDy=0;" edge="1" parent="1" source="Gn5Ju1YnGxwZPbSIlJPx-15" target="Gn5Ju1YnGxwZPbSIlJPx-9">
          <mxGeometry width="160" relative="1" as="geometry">
            <mxPoint x="1040" y="190" as="sourcePoint" />
            <mxPoint x="910" y="350" as="targetPoint" />
            <Array as="points">
              <mxPoint x="1050" y="170" />
            </Array>
          </mxGeometry>
        </mxCell>
        <mxCell id="Gn5Ju1YnGxwZPbSIlJPx-84" value="" style="endArrow=block;endSize=16;endFill=0;html=1;rounded=0;entryX=1.014;entryY=0.228;entryDx=0;entryDy=0;entryPerimeter=0;exitX=-0.003;exitY=0.661;exitDx=0;exitDy=0;exitPerimeter=0;" edge="1" parent="1" source="Gn5Ju1YnGxwZPbSIlJPx-22" target="Gn5Ju1YnGxwZPbSIlJPx-16">
          <mxGeometry width="160" relative="1" as="geometry">
            <mxPoint x="1225" y="261" as="sourcePoint" />
            <mxPoint x="1227" y="190" as="targetPoint" />
            <Array as="points">
              <mxPoint x="1225" y="232" />
            </Array>
          </mxGeometry>
        </mxCell>
        <mxCell id="Gn5Ju1YnGxwZPbSIlJPx-85" value="" style="endArrow=none;html=1;edgeStyle=orthogonalEdgeStyle;rounded=0;" edge="1" parent="1">
          <mxGeometry relative="1" as="geometry">
            <mxPoint x="1207" y="343" as="sourcePoint" />
            <mxPoint x="1370" y="400" as="targetPoint" />
            <Array as="points">
              <mxPoint x="1371" y="344" />
              <mxPoint x="1371" y="400" />
            </Array>
          </mxGeometry>
        </mxCell>
        <mxCell id="Gn5Ju1YnGxwZPbSIlJPx-88" value="" style="endArrow=none;html=1;edgeStyle=orthogonalEdgeStyle;rounded=0;" edge="1" parent="1">
          <mxGeometry relative="1" as="geometry">
            <mxPoint x="1510" y="308.44" as="sourcePoint" />
            <mxPoint x="1520" y="400" as="targetPoint" />
          </mxGeometry>
        </mxCell>
        <mxCell id="Gn5Ju1YnGxwZPbSIlJPx-90" value="\" style="edgeLabel;resizable=0;html=1;align=right;verticalAlign=bottom;" connectable="0" vertex="1" parent="Gn5Ju1YnGxwZPbSIlJPx-88">
          <mxGeometry x="1" relative="1" as="geometry" />
        </mxCell>
        <mxCell id="Gn5Ju1YnGxwZPbSIlJPx-91" value="" style="endArrow=none;html=1;edgeStyle=orthogonalEdgeStyle;rounded=0;" edge="1" parent="1">
          <mxGeometry relative="1" as="geometry">
            <mxPoint x="1180" y="520" as="sourcePoint" />
            <mxPoint x="1340" y="520" as="targetPoint" />
          </mxGeometry>
        </mxCell>
        <mxCell id="Gn5Ju1YnGxwZPbSIlJPx-94" value="" style="endArrow=none;html=1;edgeStyle=orthogonalEdgeStyle;rounded=0;exitX=0.22;exitY=1.043;exitDx=0;exitDy=0;exitPerimeter=0;entryX=0.327;entryY=0.012;entryDx=0;entryDy=0;entryPerimeter=0;" edge="1" parent="1" source="Gn5Ju1YnGxwZPbSIlJPx-18" target="Gn5Ju1YnGxwZPbSIlJPx-10">
          <mxGeometry relative="1" as="geometry">
            <mxPoint x="670" y="490" as="sourcePoint" />
            <mxPoint x="830" y="490" as="targetPoint" />
          </mxGeometry>
        </mxCell>
        <mxCell id="Gn5Ju1YnGxwZPbSIlJPx-98" value="" style="html=1;verticalAlign=bottom;endArrow=block;curved=0;rounded=0;" edge="1" parent="1">
          <mxGeometry width="80" relative="1" as="geometry">
            <mxPoint x="650" y="300" as="sourcePoint" />
            <mxPoint x="730" y="300" as="targetPoint" />
          </mxGeometry>
        </mxCell>
        <mxCell id="Gn5Ju1YnGxwZPbSIlJPx-99" value="&lt;p style=&quot;margin: 0px 0px 5px; font-style: normal; font-variant-caps: normal; font-stretch: normal; line-height: normal; font-family: &amp;quot;Times New Roman&amp;quot;; font-size-adjust: none; font-kerning: auto; font-variant-alternates: normal; font-variant-ligatures: normal; font-variant-numeric: normal; font-variant-east-asian: normal; font-variant-position: normal; font-variant-emoji: normal; font-feature-settings: normal; font-optical-sizing: auto; font-variation-settings: normal;&quot;&gt;: Użytkownik / Pacjent&lt;/p&gt;" style="shape=umlLifeline;perimeter=lifelinePerimeter;whiteSpace=wrap;html=1;container=0;dropTarget=0;collapsible=0;recursiveResize=0;outlineConnect=0;portConstraint=eastwest;newEdgeStyle={&quot;edgeStyle&quot;:&quot;elbowEdgeStyle&quot;,&quot;elbow&quot;:&quot;vertical&quot;,&quot;curved&quot;:0,&quot;rounded&quot;:0};" vertex="1" parent="1">
          <mxGeometry x="-10" y="450" width="100" height="300" as="geometry" />
        </mxCell>
        <mxCell id="Gn5Ju1YnGxwZPbSIlJPx-100" value="" style="html=1;points=[];perimeter=orthogonalPerimeter;outlineConnect=0;targetShapes=umlLifeline;portConstraint=eastwest;newEdgeStyle={&quot;edgeStyle&quot;:&quot;elbowEdgeStyle&quot;,&quot;elbow&quot;:&quot;vertical&quot;,&quot;curved&quot;:0,&quot;rounded&quot;:0};" vertex="1" parent="Gn5Ju1YnGxwZPbSIlJPx-99">
          <mxGeometry x="45" y="70" width="10" height="190" as="geometry" />
        </mxCell>
        <mxCell id="Gn5Ju1YnGxwZPbSIlJPx-101" value="" style="html=1;verticalAlign=bottom;startArrow=oval;endArrow=block;startSize=8;edgeStyle=elbowEdgeStyle;elbow=vertical;curved=0;rounded=0;" edge="1" parent="Gn5Ju1YnGxwZPbSIlJPx-99" target="Gn5Ju1YnGxwZPbSIlJPx-100">
          <mxGeometry relative="1" as="geometry">
            <mxPoint x="-15" y="70" as="sourcePoint" />
          </mxGeometry>
        </mxCell>
        <mxCell id="Gn5Ju1YnGxwZPbSIlJPx-102" value="" style="html=1;points=[];perimeter=orthogonalPerimeter;outlineConnect=0;targetShapes=umlLifeline;portConstraint=eastwest;newEdgeStyle={&quot;edgeStyle&quot;:&quot;elbowEdgeStyle&quot;,&quot;elbow&quot;:&quot;vertical&quot;,&quot;curved&quot;:0,&quot;rounded&quot;:0};" vertex="1" parent="Gn5Ju1YnGxwZPbSIlJPx-99">
          <mxGeometry x="50" y="120" width="10" height="80" as="geometry" />
        </mxCell>
        <mxCell id="Gn5Ju1YnGxwZPbSIlJPx-103" value=":Pracownik rejestracji" style="shape=umlLifeline;perimeter=lifelinePerimeter;whiteSpace=wrap;html=1;container=0;dropTarget=0;collapsible=0;recursiveResize=0;outlineConnect=0;portConstraint=eastwest;newEdgeStyle={&quot;edgeStyle&quot;:&quot;elbowEdgeStyle&quot;,&quot;elbow&quot;:&quot;vertical&quot;,&quot;curved&quot;:0,&quot;rounded&quot;:0};" vertex="1" parent="1">
          <mxGeometry x="230" y="450" width="100" height="300" as="geometry" />
        </mxCell>
        <mxCell id="Gn5Ju1YnGxwZPbSIlJPx-104" value="" style="html=1;points=[];perimeter=orthogonalPerimeter;outlineConnect=0;targetShapes=umlLifeline;portConstraint=eastwest;newEdgeStyle={&quot;edgeStyle&quot;:&quot;elbowEdgeStyle&quot;,&quot;elbow&quot;:&quot;vertical&quot;,&quot;curved&quot;:0,&quot;rounded&quot;:0};" vertex="1" parent="Gn5Ju1YnGxwZPbSIlJPx-103">
          <mxGeometry x="45" y="80" width="10" height="170" as="geometry" />
        </mxCell>
        <mxCell id="Gn5Ju1YnGxwZPbSIlJPx-105" value="" style="html=1;verticalAlign=bottom;endArrow=block;edgeStyle=elbowEdgeStyle;elbow=vertical;curved=0;rounded=0;" edge="1" parent="1" source="Gn5Ju1YnGxwZPbSIlJPx-100" target="Gn5Ju1YnGxwZPbSIlJPx-104">
          <mxGeometry relative="1" as="geometry">
            <mxPoint x="205" y="540" as="sourcePoint" />
            <Array as="points">
              <mxPoint x="190" y="530" />
            </Array>
          </mxGeometry>
        </mxCell>
        <mxCell id="Gn5Ju1YnGxwZPbSIlJPx-106" value="return" style="html=1;verticalAlign=bottom;endArrow=open;dashed=1;endSize=8;edgeStyle=elbowEdgeStyle;elbow=vertical;curved=0;rounded=0;" edge="1" parent="1" source="Gn5Ju1YnGxwZPbSIlJPx-104" target="Gn5Ju1YnGxwZPbSIlJPx-100">
          <mxGeometry relative="1" as="geometry">
            <mxPoint x="205" y="615" as="targetPoint" />
            <Array as="points">
              <mxPoint x="200" y="690" />
            </Array>
          </mxGeometry>
        </mxCell>
        <mxCell id="Gn5Ju1YnGxwZPbSIlJPx-107" value="przypiszPacjenta()" style="html=1;verticalAlign=bottom;endArrow=block;edgeStyle=elbowEdgeStyle;elbow=vertical;curved=0;rounded=0;" edge="1" parent="1">
          <mxGeometry x="0.8253" y="10" relative="1" as="geometry">
            <mxPoint x="734.5000000000005" y="680" as="sourcePoint" />
            <Array as="points">
              <mxPoint x="660" y="680" />
              <mxPoint x="530" y="670" />
            </Array>
            <mxPoint x="670" y="730" as="targetPoint" />
            <mxPoint as="offset" />
          </mxGeometry>
        </mxCell>
        <mxCell id="Gn5Ju1YnGxwZPbSIlJPx-108" value="&lt;p style=&quot;margin: 0px 0px 5px; font-style: normal; font-variant-caps: normal; font-stretch: normal; font-size: 12px; line-height: normal; font-family: &amp;quot;Times New Roman&amp;quot;; font-size-adjust: none; font-kerning: auto; font-variant-alternates: normal; font-variant-ligatures: normal; font-variant-numeric: normal; font-variant-east-asian: normal; font-variant-position: normal; font-variant-emoji: normal; font-feature-settings: normal; font-optical-sizing: auto; font-variation-settings: normal;&quot;&gt;wybiera dostępnego lekarza&lt;/p&gt;" style="html=1;verticalAlign=bottom;endArrow=block;curved=0;rounded=0;" edge="1" parent="1" source="Gn5Ju1YnGxwZPbSIlJPx-103" target="Gn5Ju1YnGxwZPbSIlJPx-111">
          <mxGeometry relative="1" as="geometry">
            <mxPoint x="290" y="565" as="sourcePoint" />
            <Array as="points">
              <mxPoint x="350" y="580" />
            </Array>
          </mxGeometry>
        </mxCell>
        <mxCell id="Gn5Ju1YnGxwZPbSIlJPx-109" value="&lt;div style=&quot;text-align: left;&quot;&gt;&lt;font size=&quot;1&quot; face=&quot;monospace&quot;&gt;&lt;span style=&quot;text-wrap-mode: wrap; background-color: rgb(236, 236, 236);&quot;&gt;return&lt;/span&gt;&lt;/font&gt;&lt;/div&gt;" style="html=1;verticalAlign=bottom;endArrow=open;dashed=1;endSize=8;curved=0;rounded=0;" edge="1" parent="1" source="Gn5Ju1YnGxwZPbSIlJPx-110" target="Gn5Ju1YnGxwZPbSIlJPx-103">
          <mxGeometry relative="1" as="geometry">
            <mxPoint x="290" y="635" as="targetPoint" />
            <Array as="points">
              <mxPoint x="360" y="680" />
            </Array>
            <mxPoint as="offset" />
          </mxGeometry>
        </mxCell>
        <mxCell id="Gn5Ju1YnGxwZPbSIlJPx-110" value=":Lekarz" style="shape=umlLifeline;perimeter=lifelinePerimeter;whiteSpace=wrap;html=1;container=0;dropTarget=0;collapsible=0;recursiveResize=0;outlineConnect=0;portConstraint=eastwest;newEdgeStyle={&quot;edgeStyle&quot;:&quot;elbowEdgeStyle&quot;,&quot;elbow&quot;:&quot;vertical&quot;,&quot;curved&quot;:0,&quot;rounded&quot;:0};" vertex="1" parent="1">
          <mxGeometry x="360" y="430" width="110" height="300" as="geometry" />
        </mxCell>
        <mxCell id="Gn5Ju1YnGxwZPbSIlJPx-111" value="" style="html=1;points=[[0,0,0,0,5],[0,1,0,0,-5],[1,0,0,0,5],[1,1,0,0,-5]];perimeter=orthogonalPerimeter;outlineConnect=0;targetShapes=umlLifeline;portConstraint=eastwest;newEdgeStyle={&quot;curved&quot;:0,&quot;rounded&quot;:0};" vertex="1" parent="Gn5Ju1YnGxwZPbSIlJPx-110">
          <mxGeometry x="50" y="95" width="10" height="195" as="geometry" />
        </mxCell>
        <mxCell id="Gn5Ju1YnGxwZPbSIlJPx-112" value=":Wizyta" style="shape=umlLifeline;perimeter=lifelinePerimeter;whiteSpace=wrap;html=1;container=0;dropTarget=0;collapsible=0;recursiveResize=0;outlineConnect=0;portConstraint=eastwest;newEdgeStyle={&quot;edgeStyle&quot;:&quot;elbowEdgeStyle&quot;,&quot;elbow&quot;:&quot;vertical&quot;,&quot;curved&quot;:0,&quot;rounded&quot;:0};" vertex="1" parent="1">
          <mxGeometry x="680" y="453" width="110" height="300" as="geometry" />
        </mxCell>
        <mxCell id="Gn5Ju1YnGxwZPbSIlJPx-113" value="" style="html=1;points=[[0,0,0,0,5],[0,1,0,0,-5],[1,0,0,0,5],[1,1,0,0,-5]];perimeter=orthogonalPerimeter;outlineConnect=0;targetShapes=umlLifeline;portConstraint=eastwest;newEdgeStyle={&quot;curved&quot;:0,&quot;rounded&quot;:0};" vertex="1" parent="Gn5Ju1YnGxwZPbSIlJPx-112">
          <mxGeometry x="50" y="95" width="10" height="205" as="geometry" />
        </mxCell>
        <mxCell id="Gn5Ju1YnGxwZPbSIlJPx-114" value="&lt;p style=&quot;margin: 0px 0px 5px; font-style: normal; font-variant-caps: normal; font-stretch: normal; line-height: normal; font-family: &amp;quot;Times New Roman&amp;quot;; font-size-adjust: none; font-kerning: auto; font-variant-alternates: normal; font-variant-ligatures: normal; font-variant-numeric: normal; font-variant-east-asian: normal; font-variant-position: normal; font-variant-emoji: normal; font-feature-settings: normal; font-optical-sizing: auto; font-variation-settings: normal;&quot;&gt;&lt;font style=&quot;font-size: 10px;&quot;&gt;loguje się do systemu&lt;/font&gt;&lt;/p&gt;&lt;p style=&quot;margin: 0px 0px 5px; font-style: normal; font-variant-caps: normal; font-stretch: normal; line-height: normal; font-family: &amp;quot;Times New Roman&amp;quot;; font-size-adjust: none; font-kerning: auto; font-variant-alternates: normal; font-variant-ligatures: normal; font-variant-numeric: normal; font-variant-east-asian: normal; font-variant-position: normal; font-variant-emoji: normal; font-feature-settings: normal; font-optical-sizing: auto; font-variation-settings: normal;&quot;&gt;&lt;font style=&quot;font-size: 10px;&quot;&gt;&amp;nbsp;jako pacjent&lt;/font&gt;&lt;/p&gt;" style="text;html=1;align=center;verticalAlign=middle;resizable=0;points=[];autosize=1;strokeColor=none;fillColor=none;" vertex="1" parent="1">
          <mxGeometry x="30" y="503" width="110" height="50" as="geometry" />
        </mxCell>
        <mxCell id="Gn5Ju1YnGxwZPbSIlJPx-115" value="&lt;p style=&quot;margin: 0px 0px 5px; font-style: normal; font-variant-caps: normal; font-stretch: normal; line-height: normal; font-family: &amp;quot;Times New Roman&amp;quot;; font-size-adjust: none; font-kerning: auto; font-variant-alternates: normal; font-variant-ligatures: normal; font-variant-numeric: normal; font-variant-east-asian: normal; font-variant-position: normal; font-variant-emoji: normal; font-feature-settings: normal; font-optical-sizing: auto; font-variation-settings: normal;&quot;&gt;&lt;font style=&quot;font-size: 10px;&quot;&gt;kontaktuje się z punktem rejestracyjnym&amp;nbsp;&lt;/font&gt;&lt;/p&gt;&lt;p style=&quot;margin: 0px 0px 5px; font-style: normal; font-variant-caps: normal; font-stretch: normal; line-height: normal; font-family: &amp;quot;Times New Roman&amp;quot;; font-size-adjust: none; font-kerning: auto; font-variant-alternates: normal; font-variant-ligatures: normal; font-variant-numeric: normal; font-variant-east-asian: normal; font-variant-position: normal; font-variant-emoji: normal; font-feature-settings: normal; font-optical-sizing: auto; font-variation-settings: normal;&quot;&gt;&lt;font style=&quot;font-size: 10px;&quot;&gt;w celu umówienia wizyty&lt;/font&gt;&lt;/p&gt;" style="text;html=1;align=center;verticalAlign=middle;resizable=0;points=[];autosize=1;strokeColor=none;fillColor=none;" vertex="1" parent="1">
          <mxGeometry x="125" y="503" width="190" height="50" as="geometry" />
        </mxCell>
        <mxCell id="Gn5Ju1YnGxwZPbSIlJPx-116" style="edgeStyle=orthogonalEdgeStyle;rounded=0;orthogonalLoop=1;jettySize=auto;html=1;" edge="1" parent="1">
          <mxGeometry relative="1" as="geometry">
            <mxPoint x="40.04000000000019" y="500.96" as="sourcePoint" />
            <mxPoint x="40" y="557.96" as="targetPoint" />
            <Array as="points">
              <mxPoint x="40" y="497.96" />
              <mxPoint x="105" y="497.96" />
              <mxPoint x="105" y="557.96" />
            </Array>
          </mxGeometry>
        </mxCell>
        <mxCell id="Gn5Ju1YnGxwZPbSIlJPx-117" value="&lt;p style=&quot;margin: 0px 0px 5px; font-style: normal; font-variant-caps: normal; font-stretch: normal; line-height: normal; font-family: &amp;quot;Times New Roman&amp;quot;; font-size-adjust: none; font-kerning: auto; font-variant-alternates: normal; font-variant-ligatures: normal; font-variant-numeric: normal; font-variant-east-asian: normal; font-variant-position: normal; font-feature-settings: normal; font-optical-sizing: auto; font-variation-settings: normal;&quot;&gt;&lt;span style=&quot;font-size: 12px;&quot;&gt;tworzy dla pacjenta nową wizytę&lt;/span&gt;&lt;/p&gt;&lt;p style=&quot;margin: 0px 0px 5px; font-style: normal; font-variant-caps: normal; font-stretch: normal; line-height: normal; font-family: &amp;quot;Times New Roman&amp;quot;; font-size-adjust: none; font-kerning: auto; font-variant-alternates: normal; font-variant-ligatures: normal; font-variant-numeric: normal; font-variant-east-asian: normal; font-variant-position: normal; font-feature-settings: normal; font-optical-sizing: auto; font-variation-settings: normal;&quot;&gt;&lt;span style=&quot;font-size: 12px;&quot;&gt;&amp;nbsp;&lt;/span&gt;&lt;span style=&quot;text-align: start; white-space: normal; font-family: Helvetica;&quot;&gt;&lt;font style=&quot;font-size: 10px;&quot;&gt;(termin, lekarz, pacjent)&lt;/font&gt;&lt;/span&gt;&lt;/p&gt;" style="html=1;verticalAlign=bottom;endArrow=block;curved=0;rounded=0;" edge="1" parent="1">
          <mxGeometry x="0.2332" y="10" relative="1" as="geometry">
            <mxPoint x="279.3888888888889" y="588.0000000000005" as="sourcePoint" />
            <mxPoint x="734.5000000000005" y="588.0000000000005" as="targetPoint" />
            <mxPoint x="-1" as="offset" />
          </mxGeometry>
        </mxCell>
        <mxCell id="Gn5Ju1YnGxwZPbSIlJPx-120" value="&lt;span style=&quot;font-family: monospace; font-size: 10px; text-align: left; white-space: normal;&quot;&gt;zaakceptujWizytę()&lt;/span&gt;" style="text;html=1;align=center;verticalAlign=middle;resizable=0;points=[];autosize=1;strokeColor=none;fillColor=none;" vertex="1" parent="1">
          <mxGeometry x="415" y="588" width="130" height="30" as="geometry" />
        </mxCell>
        <mxCell id="Gn5Ju1YnGxwZPbSIlJPx-122" style="edgeStyle=orthogonalEdgeStyle;rounded=0;orthogonalLoop=1;jettySize=auto;html=1;" edge="1" parent="1">
          <mxGeometry relative="1" as="geometry">
            <mxPoint x="427.5200000000002" y="638" as="sourcePoint" />
            <mxPoint x="427.48" y="695" as="targetPoint" />
            <Array as="points">
              <mxPoint x="427.48" y="635" />
              <mxPoint x="492.48" y="635" />
              <mxPoint x="492.48" y="695" />
            </Array>
          </mxGeometry>
        </mxCell>
        <mxCell id="Gn5Ju1YnGxwZPbSIlJPx-123" value="&lt;p style=&quot;margin: 0px 0px 5px; font-style: normal; font-variant-caps: normal; font-stretch: normal; line-height: normal; font-family: &amp;quot;Times New Roman&amp;quot;; font-size-adjust: none; font-kerning: auto; font-variant-alternates: normal; font-variant-ligatures: normal; font-variant-numeric: normal; font-variant-east-asian: normal; font-variant-position: normal; font-variant-emoji: normal; font-feature-settings: normal; font-optical-sizing: auto; font-variation-settings: normal;&quot;&gt;&lt;font style=&quot;font-size: 10px;&quot;&gt;przeglądać swoją&lt;/font&gt;&lt;/p&gt;&lt;p style=&quot;margin: 0px 0px 5px; font-style: normal; font-variant-caps: normal; font-stretch: normal; line-height: normal; font-family: &amp;quot;Times New Roman&amp;quot;; font-size-adjust: none; font-kerning: auto; font-variant-alternates: normal; font-variant-ligatures: normal; font-variant-numeric: normal; font-variant-east-asian: normal; font-variant-position: normal; font-variant-emoji: normal; font-feature-settings: normal; font-optical-sizing: auto; font-variation-settings: normal;&quot;&gt;&lt;font style=&quot;font-size: 10px;&quot;&gt;&amp;nbsp;historię wizyt&lt;/font&gt;&lt;/p&gt;" style="text;html=1;align=center;verticalAlign=middle;resizable=0;points=[];autosize=1;strokeColor=none;fillColor=none;" vertex="1" parent="1">
          <mxGeometry x="415" y="640" width="90" height="50" as="geometry" />
        </mxCell>
        <mxCell id="Gn5Ju1YnGxwZPbSIlJPx-126" value="&lt;p style=&quot;margin: 0px 0px 5px; font-style: normal; font-variant-caps: normal; font-stretch: normal; line-height: normal; font-family: &amp;quot;Times New Roman&amp;quot;; font-size-adjust: none; font-kerning: auto; font-variant-alternates: normal; font-variant-ligatures: normal; font-variant-numeric: normal; font-variant-east-asian: normal; font-variant-position: normal; font-feature-settings: normal; font-optical-sizing: auto; font-variation-settings: normal;&quot;&gt;&lt;br&gt;&lt;/p&gt;" style="html=1;verticalAlign=bottom;endArrow=block;curved=0;rounded=0;" edge="1" parent="1">
          <mxGeometry x="-0.3182" relative="1" as="geometry">
            <mxPoint x="555" y="612.44" as="sourcePoint" />
            <mxPoint x="735" y="612.44" as="targetPoint" />
            <Array as="points">
              <mxPoint x="425" y="612.44" />
            </Array>
            <mxPoint as="offset" />
          </mxGeometry>
        </mxCell>
        <mxCell id="Gn5Ju1YnGxwZPbSIlJPx-132" value="" style="html=1;verticalAlign=bottom;endArrow=block;curved=0;rounded=0;" edge="1" parent="1">
          <mxGeometry width="80" relative="1" as="geometry">
            <mxPoint x="660" y="730" as="sourcePoint" />
            <mxPoint x="740" y="730" as="targetPoint" />
          </mxGeometry>
        </mxCell>
        <mxCell id="Gn5Ju1YnGxwZPbSIlJPx-136" value="" style="html=1;verticalAlign=bottom;endArrow=block;curved=0;rounded=0;" edge="1" parent="1">
          <mxGeometry width="80" relative="1" as="geometry">
            <mxPoint x="650" y="670" as="sourcePoint" />
            <mxPoint x="730" y="670" as="targetPoint" />
          </mxGeometry>
        </mxCell>
        <mxCell id="Gn5Ju1YnGxwZPbSIlJPx-137" value="przypiszLekarza()" style="html=1;verticalAlign=bottom;endArrow=block;edgeStyle=elbowEdgeStyle;elbow=vertical;curved=0;rounded=0;" edge="1" parent="1">
          <mxGeometry x="0.8164" y="10" relative="1" as="geometry">
            <mxPoint x="735" y="630" as="sourcePoint" />
            <Array as="points">
              <mxPoint x="660" y="630" />
              <mxPoint x="530" y="620" />
            </Array>
            <mxPoint x="670" y="680" as="targetPoint" />
            <mxPoint as="offset" />
          </mxGeometry>
        </mxCell>
      </root>
    </mxGraphModel>
  </diagram>
</mxfile>
